HIERARCHY
ROOT pelvis
{
  OFFSET 0 100 0
  CHANNELS 6 Xposition Yposition Zposition Zrotation Xrotation Yrotation
  JOINT pelvis_right_femur
  {
    OFFSET -10.78128 -3.44521 -0.5502486
    CHANNELS 3 Zrotation Xrotation Yrotation
    JOINT right_femur_tibia
    {
      OFFSET -0.8047443 -44.0398 -0.1307829
      CHANNELS 3 Zrotation Xrotation Yrotation
      JOINT right_tibia_foot
      {
        OFFSET 3.006224 -47.83518 -5
        CHANNELS 3 Zrotation Xrotation Yrotation
        End Site
        {
          OFFSET 0 -5 15
        }
      }
    }
  }
  JOINT pelvis_left_femur
  {
    OFFSET 10.78128 -3.44521 -0.5502486
    CHANNELS 3 Zrotation Xrotation Yrotation
    JOINT left_femur_tibia
    {
      OFFSET 0.8047443 -44.0398 -0.1307829
      CHANNELS 3 Zrotation Xrotation Yrotation
      JOINT left_tibia_foot
      {
        OFFSET -4.370144 -48.10324 -4.275266
        CHANNELS 3 Zrotation Xrotation Yrotation
        End Site
        {
          OFFSET 0 -5 15
        }
      }
    }
  }
  JOINT pelvis_spine1
  {
    OFFSET 0 6.468898 -3.129235
    CHANNELS 3 Zrotation Xrotation Yrotation
    JOINT spine1
    {
      OFFSET 0 23.15396 4.99043
      CHANNELS 3 Zrotation Xrotation Yrotation
      JOINT spine2
      {
        OFFSET 0 20.79997 -5.064912
        CHANNELS 3 Zrotation Xrotation Yrotation
        JOINT neck
        {
          OFFSET 0 14.38658 9.616178
          CHANNELS 3 Zrotation Xrotation Yrotation
          End Site
          {
            OFFSET 0 20 0
          }
        }
      }
      JOINT right_manubrium
      {
        OFFSET -5.722621 16.35077 3.967754
        CHANNELS 3 Zrotation Xrotation Yrotation
        JOINT right_clavicle
        {
          OFFSET -13.16364 1.694482 -4.693211
          CHANNELS 3 Zrotation Xrotation Yrotation
          JOINT right_humerus
          {
            OFFSET -28.5034 -0.3100689 -2.792744
            CHANNELS 3 Zrotation Xrotation Yrotation
            JOINT right_radius
            {
              OFFSET -25.15693 0.02248979 -1.271978
              CHANNELS 3 Zrotation Xrotation Yrotation
              End Site
              {
                OFFSET -15 0 0
              }
            }
          }
        }
      }
      JOINT left_manubrium
      {
        OFFSET 5.722621 16.35077 3.967754
        CHANNELS 3 Zrotation Xrotation Yrotation
        JOINT left_clavicle
        {
          OFFSET 13.16364 1.694482 -4.693211
          CHANNELS 3 Zrotation Xrotation Yrotation
          JOINT left_humerus
          {
            OFFSET 29.39168 -1.063119 -2.237045
            CHANNELS 3 Zrotation Xrotation Yrotation
            JOINT left_radius
            {
              OFFSET 24.59957 -0.9528479 0.9047498
              CHANNELS 3 Zrotation Xrotation Yrotation
              End Site
              {
                OFFSET 15 -0 -0
              }
            }
          }
        }
      }
    }
  }
}
MOTION
Frames: 13
Frame Time: 0.0416666666667
0 103.5113 0 0.7360449 -1.954772 0.8209582 0.9676096 -21.62155 2.545973 -0 34.87322 -0 -4.446336 -4.628727 -3.462122 -6.084307 12.37536 -17.07737 0 -5.557504 0 2.538848 -21.81082 19.83637 -3.524456 -1.453337 2.705168 1.519381 8.793164 -7.35601 1.293624 22.01938 7.375582 3.237618 -21.70391 8.897797 3.822088 -18.23938 10.51376 86.94347 30.90225 -17.8939 -0 0 14.16082 -15.26659 10.14656 8.836743 6.445302 -20.08322 -3.427246 -89.41532 26.54058 16.73939 0 0 -18.56613 3.706155 14.80577 9.211555
0.5588379 102.525 3.717386 0.718941 -1.827935 1.601937 1.045585 -21.99249 2.478573 -0 34.1806 -0 -4.666052 -4.756892 -3.368951 -6.034734 12.55326 -17.15197 0 -6.002353 0 2.732536 -21.92002 19.89096 -3.499183 -1.509006 2.68801 1.570578 8.822469 -7.422518 1.267357 21.98329 7.374893 3.256309 -21.83103 8.88038 3.784018 -18.34133 10.53508 87.02744 30.89261 -18.04712 -0 0 14.16375 -15.12914 10.08525 8.764368 6.509575 -20.23521 -3.445968 -89.45832 26.46191 16.8014 0 0 -18.71129 3.917391 14.95558 8.939566
1.059301 101.555 7.485285 0.5712262 -1.633307 2.28289 1.609738 -23.17968 2.591356 -0 31.2462 -0 -4.82145 -5.214908 -3.567446 -5.809645 13.15458 -16.80666 0 -2.908298 0 2.147869 -21.74242 19.24865 -3.269027 -1.456664 2.673421 1.760428 8.818345 -7.637174 1.266024 21.91254 7.311196 3.251681 -21.93288 8.793063 3.79506 -18.01499 10.58095 87.4107 30.97723 -18.92209 -0 0 13.53616 -14.74837 10.27718 8.368077 6.582861 -20.60224 -3.436134 -89.10491 26.51896 16.11381 0 0 -19.77568 3.964172 14.91933 8.901663
1.492141 100.471 11.15564 0.3264061 -1.111964 2.854737 2.266134 -25.13865 2.579462 -0 27.11511 -0 -5.499541 -6.05092 -3.481268 -5.505372 14.07768 -16.81806 0 -1.998511 0 2.231867 -21.9674 18.94277 -3.039618 -1.567212 2.623681 2.056278 8.856812 -7.986464 1.192224 21.74811 7.271471 3.297795 -22.3848 8.696464 3.73781 -18.05182 10.66898 87.87518 31.10526 -19.98342 -0 0 13.12813 -14.01646 10.25057 7.856455 6.815132 -21.26065 -3.439734 -88.99827 26.45387 15.81511 0 0 -20.99391 4.485936 15.2888 8.255927
1.839845 99.28334 14.76939 0.08134411 -0.6895054 3.31957 2.945612 -26.96163 2.591724 -0 23.04361 -0 -6.108327 -6.762725 -3.464824 -5.20169 14.9592 -16.6994 0 -0.3230939 0 2.144223 -22.05418 18.51116 -2.786345 -1.643267 2.579359 2.334417 8.908309 -8.316732 1.133458 21.60557 7.214974 3.332649 -22.75489 8.58444 3.669725 -17.99805 10.75528 88.38527 31.15796 -21.06596 -0 0 12.6107 -13.37723 10.27327 7.355135 7.019202 -21.90242 -3.45984 -88.80308 26.34628 15.37692 0 0 -22.22803 4.975977 15.57348 7.648686
2.098796 98.00499 18.34372 -0.1578779 -0.3301849 3.679123 3.599319 -28.66843 2.571628 -0 19.11822 -0 -6.739828 -7.348349 -3.437209 -4.90787 15.80528 -16.545 -0 1.398167 -0 2.079144 -22.09179 18.08234 -2.531742 -1.722663 2.533142 2.593392 8.988681 -8.630965 1.07587 21.47653 7.151591 3.366914 -23.09576 8.461641 3.569576 -17.95788 10.84401 88.92226 31.1183 -22.11417 -0 0 12.08178 -12.81518 10.28396 6.88651 7.21774 -22.55187 -3.507627 -88.5982 26.14732 14.93884 0 0 -23.39229 5.540197 15.85641 6.941025
2.271586 96.69046 21.95162 -0.3471188 -0.1690133 3.941405 4.171549 -29.95455 2.535257 -0 15.86317 -0 -7.215277 -7.617284 -3.484858 -4.664922 16.50715 -16.22311 -0 3.8972 -0 1.821294 -21.92978 17.54834 -2.279661 -1.74997 2.493234 2.78763 9.092484 -8.875426 1.045256 21.39954 7.073219 3.383528 -23.27406 8.330343 3.452086 -17.80795 10.91996 89.46006 30.9445 -23.0435 -0 0 11.4617 -12.47952 10.35645 6.503018 7.351858 -23.10496 -3.590338 -88.29605 25.87001 14.36554 0 0 -24.40143 6.029683 16.00043 6.319062
2.367882 95.41167 25.68209 -0.4692391 -0.2417161 4.117201 4.631217 -30.72251 2.469129 -0 13.46365 -0 -7.491112 -7.510299 -3.617577 -4.489074 17.02784 -15.706 -0 7.280806 -0 1.338732 -21.53233 16.90144 -2.035513 -1.713684 2.461196 2.901985 9.220695 -9.032788 1.047646 21.38537 6.979092 3.379286 -23.25601 8.192392 3.318952 -17.52709 10.97925 89.98163 30.62404 -23.81268 -0 0 10.74402 -12.41481 10.50635 6.225882 7.405674 -23.53102 -3.712774 -87.8867 25.50982 13.64168 0 0 -25.21181 6.409309 15.97806 5.824356
2.40093 94.25708 29.6426 -0.5110921 -0.585207 4.218794 4.966211 -30.8609 2.381144 -0 12.04973 -0 -7.500992 -6.995948 -3.865143 -4.389425 17.30743 -14.94579 -0 11.81396 -0 0.557266 -20.83828 16.11247 -1.798424 -1.593442 2.444015 2.923243 9.367818 -9.084823 1.092099 21.44442 6.865471 3.348546 -22.99946 8.048602 3.179256 -17.07491 11.01796 90.46637 30.15816 -24.38857 -0 0 9.911429 -12.66246 10.76406 6.071197 7.358457 -23.79148 -3.872667 -87.3524 25.08011 12.73358 0 0 -25.80045 6.610098 15.74399 5.54282
2.386268 93.32511 33.94632 -0.4692879 -1.210614 4.25834 5.179903 -30.27199 2.284491 -0 11.63392 -0 -7.207635 -6.104337 -4.243467 -4.358953 17.25828 -13.91582 -0 17.62384 -0 -0.5551674 -19.79933 15.18493 -1.565694 -1.378256 2.453933 2.845325 9.528183 -9.018899 1.183314 21.57878 6.728011 3.288216 -22.48637 7.898305 3.039762 -16.44272 11.03603 90.88571 29.56039 -24.73623 -0 0 8.980979 -13.23993 11.14708 6.052731 7.198784 -23.86057 -4.062 -86.70484 24.59409 11.65491 0 0 -26.14651 6.583029 15.27477 5.536422
2.340914 92.7197 38.70277 -0.3464859 -2.113144 4.245436 5.288338 -28.81862 2.207889 -0 12.15298 -0 -6.580086 -4.930722 -4.763648 -4.371187 16.7261 -12.59953 -0 24.76518 -0 -2.014241 -18.36175 14.1492 -1.333462 -1.059794 2.513711 2.664665 9.692198 -8.820309 1.324524 21.78492 6.56043 3.195291 -21.71003 7.739892 2.909145 -15.64523 11.03548 91.19009 28.86085 -24.80022 -0 0 8.010016 -14.15409 11.66844 6.189919 6.917323 -23.70848 -4.262674 -85.98172 24.07772 10.46547 0 0 -26.21637 6.273102 14.55038 5.87729
2.283601 92.53746 43.99923 -0.1558985 -3.25278 4.183185 5.319737 -26.3266 2.19098 -0 13.41051 -0 -5.621584 -3.674442 -5.408251 -4.365757 15.4674 -11.0132 -0 33.06232 -0 -3.78362 -16.4884 13.08835 -1.098565 -0.6412752 2.660274 2.384075 9.847213 -8.475062 1.513542 22.04786 6.355281 3.068797 -20.69417 7.570159 2.794811 -14.75096 11.02231 91.29859 28.11254 -24.4941 -0 0 7.13036 -15.38605 12.32354 6.508544 6.513365 -23.30944 -4.443297 -85.26806 23.57277 9.31429 0 0 -25.95285 5.638818 13.57182 6.623985
2.234697 92.83714 49.86852 0.06827687 -4.517018 4.060968 5.319698 -22.64458 2.278411 -0 14.95618 -0 -4.419418 -2.694786 -6.092866 -4.232 13.16095 -9.241359 -0 41.88464 -0 -5.730295 -14.20942 12.15821 -0.8599716 -0.1517607 2.945394 2.023724 9.977211 -7.981496 1.735795 22.3309 6.106853 2.913252 -19.52798 7.383867 2.700304 -13.91969 11.00936 91.09457 27.40438 -23.70888 -0 0 6.582374 -16.85233 13.07082 7.027709 6.007667 -22.66302 -4.555156 -84.71912 23.14699 8.485449 0 0 -25.28594 4.681411 12.39361 7.784991
